<?xml version="1.0" encoding="UTF-8" standalone="no"?>
<svg width="143px" height="69px" viewBox="0 0 143 69" version="1.1" xmlns="http://www.w3.org/2000/svg" xmlns:xlink="http://www.w3.org/1999/xlink">
    <!-- Generator: Sketch 46.2 (44496) - http://www.bohemiancoding.com/sketch -->
    <title>Advania logo</title>
    <desc>Created with Sketch.</desc>
    <defs>
        <linearGradient x1="49.9617021%" y1="132.429448%" x2="49.9617021%" y2="-23.9791411%" id="linearGradient-1">
            <stop stop-color="#C4007E" offset="0%"></stop>
            <stop stop-color="#471267" offset="100%"></stop>
        </linearGradient>
        <linearGradient x1="-0.11957672%" y1="49.5618182%" x2="99.7677249%" y2="49.5618182%" id="linearGradient-2">
            <stop stop-color="#FFE700" offset="0%"></stop>
            <stop stop-color="#FFE401" offset="1.7729%"></stop>
            <stop stop-color="#F8A912" offset="34.45%"></stop>
            <stop stop-color="#F47E1E" offset="62.33%"></stop>
            <stop stop-color="#F16425" offset="84.05%"></stop>
            <stop stop-color="#F05A28" offset="96.93%"></stop>
        </linearGradient>
        <linearGradient x1="128.84%" y1="95.8791411%" x2="29.2736842%" y2="37.8515337%" id="linearGradient-3">
            <stop stop-color="#008DAC" offset="0%"></stop>
            <stop stop-color="#3AC3DF" offset="100%"></stop>
        </linearGradient>
        <linearGradient x1="50.3202128%" y1="104.446012%" x2="48.5202128%" y2="-2.00736196%" id="linearGradient-4">
            <stop stop-color="#C4007E" offset="0%"></stop>
            <stop stop-color="#471267" offset="100%"></stop>
        </linearGradient>
        <linearGradient x1="49.8484211%" y1="132.077301%" x2="49.8484211%" y2="17.6300613%" id="linearGradient-5">
            <stop stop-color="#008DAC" offset="0%"></stop>
            <stop stop-color="#3AC3DF" offset="100%"></stop>
        </linearGradient>
        <linearGradient x1="-13.1661376%" y1="-41.8981481%" x2="156.066138%" y2="134.068519%" id="linearGradient-6">
            <stop stop-color="#FFE700" offset="0%"></stop>
            <stop stop-color="#FFE401" offset="1.7729%"></stop>
            <stop stop-color="#F8A912" offset="34.45%"></stop>
            <stop stop-color="#F47E1E" offset="62.33%"></stop>
            <stop stop-color="#F16425" offset="84.05%"></stop>
            <stop stop-color="#F05A28" offset="96.93%"></stop>
        </linearGradient>
        <linearGradient x1="2.81005291%" y1="-39.2654545%" x2="105.604762%" y2="88.7654545%" id="linearGradient-7">
            <stop stop-color="#5F943D" offset="45.3%"></stop>
            <stop stop-color="#AFD475" offset="100%"></stop>
        </linearGradient>
        <linearGradient x1="128.863158%" y1="95.9006098%" x2="29.2642105%" y2="38.2067073%" id="linearGradient-8">
            <stop stop-color="#C4007E" offset="0%"></stop>
            <stop stop-color="#471267" offset="100%"></stop>
        </linearGradient>
        <linearGradient x1="49.8484211%" y1="131.882317%" x2="49.8484211%" y2="18.1073171%" id="linearGradient-9">
            <stop stop-color="#C4007E" offset="0%"></stop>
            <stop stop-color="#471267" offset="100%"></stop>
        </linearGradient>
        <linearGradient x1="-45.7382979%" y1="-1.80914634%" x2="137.197872%" y2="140.235366%" id="linearGradient-10">
            <stop stop-color="#FFE700" offset="0%"></stop>
            <stop stop-color="#FFE401" offset="1.7729%"></stop>
            <stop stop-color="#F8A912" offset="34.45%"></stop>
            <stop stop-color="#F47E1E" offset="62.33%"></stop>
            <stop stop-color="#F16425" offset="84.05%"></stop>
            <stop stop-color="#F05A28" offset="96.93%"></stop>
        </linearGradient>
        <linearGradient x1="-85.9851064%" y1="-1.92682927%" x2="174.543617%" y2="94.1810976%" id="linearGradient-11">
            <stop stop-color="#FFE700" offset="0%"></stop>
            <stop stop-color="#FFE401" offset="1.7729%"></stop>
            <stop stop-color="#F8A912" offset="34.45%"></stop>
            <stop stop-color="#F47E1E" offset="62.33%"></stop>
            <stop stop-color="#F16425" offset="84.05%"></stop>
            <stop stop-color="#F05A28" offset="96.93%"></stop>
        </linearGradient>
        <linearGradient x1="-25.6666667%" y1="44.3796296%" x2="103.800529%" y2="59.85%" id="linearGradient-12">
            <stop stop-color="#5F943D" offset="45.3%"></stop>
            <stop stop-color="#AFD475" offset="100%"></stop>
        </linearGradient>
        <linearGradient x1="0.202116402%" y1="50.4145455%" x2="100.081481%" y2="50.4145455%" id="linearGradient-13">
            <stop stop-color="#FFE700" offset="0%"></stop>
            <stop stop-color="#FFE401" offset="1.7729%"></stop>
            <stop stop-color="#F8A912" offset="34.45%"></stop>
            <stop stop-color="#F47E1E" offset="62.33%"></stop>
            <stop stop-color="#F16425" offset="84.05%"></stop>
            <stop stop-color="#F05A28" offset="96.93%"></stop>
        </linearGradient>
        <linearGradient x1="129.808511%" y1="96.1822086%" x2="29.15%" y2="38.1325153%" id="linearGradient-14">
            <stop stop-color="#008DAC" offset="0%"></stop>
            <stop stop-color="#3AC3DF" offset="100%"></stop>
        </linearGradient>
        <linearGradient x1="50.0831579%" y1="132.743558%" x2="50.0831579%" y2="-23.7067485%" id="linearGradient-15">
            <stop stop-color="#C4007E" offset="0%"></stop>
            <stop stop-color="#471267" offset="100%"></stop>
        </linearGradient>
        <linearGradient x1="50.0831579%" y1="88.592638%" x2="50.0831579%" y2="-33.1693252%" id="linearGradient-16">
            <stop stop-color="#C4007E" offset="0%"></stop>
            <stop stop-color="#471267" offset="100%"></stop>
        </linearGradient>
        <linearGradient x1="49.9617021%" y1="132.391411%" x2="49.9617021%" y2="17.9134969%" id="linearGradient-17">
            <stop stop-color="#008DAC" offset="0%"></stop>
            <stop stop-color="#3AC3DF" offset="100%"></stop>
        </linearGradient>
        <linearGradient x1="-15.942328%" y1="-25.9555556%" x2="158.216931%" y2="120.148148%" id="linearGradient-18">
            <stop stop-color="#FFE700" offset="0%"></stop>
            <stop stop-color="#FFE401" offset="1.7729%"></stop>
            <stop stop-color="#F8A912" offset="34.45%"></stop>
            <stop stop-color="#F47E1E" offset="62.33%"></stop>
            <stop stop-color="#F16425" offset="84.05%"></stop>
            <stop stop-color="#F05A28" offset="96.93%"></stop>
        </linearGradient>
        <linearGradient x1="-32.8904762%" y1="18.3872727%" x2="138.57619%" y2="69.2872727%" id="linearGradient-19">
            <stop stop-color="#FFE700" offset="0%"></stop>
            <stop stop-color="#FFE401" offset="1.7729%"></stop>
            <stop stop-color="#F8A912" offset="34.45%"></stop>
            <stop stop-color="#F47E1E" offset="62.33%"></stop>
            <stop stop-color="#F16425" offset="84.05%"></stop>
            <stop stop-color="#F05A28" offset="96.93%"></stop>
        </linearGradient>
        <linearGradient x1="50.2042553%" y1="132.391411%" x2="50.2042553%" y2="17.9134969%" id="linearGradient-20">
            <stop stop-color="#008DAC" offset="0%"></stop>
            <stop stop-color="#3AC3DF" offset="100%"></stop>
        </linearGradient>
        <linearGradient x1="0%" y1="50.4148148%" x2="99.8804233%" y2="50.4148148%" id="linearGradient-21">
            <stop stop-color="#FFE700" offset="0%"></stop>
            <stop stop-color="#FFE401" offset="1.7729%"></stop>
            <stop stop-color="#F8A912" offset="34.45%"></stop>
            <stop stop-color="#F47E1E" offset="62.33%"></stop>
            <stop stop-color="#F16425" offset="84.05%"></stop>
            <stop stop-color="#F05A28" offset="96.93%"></stop>
        </linearGradient>
        <linearGradient x1="130.051064%" y1="96.1822086%" x2="29.3925532%" y2="38.1331288%" id="linearGradient-22">
            <stop stop-color="#008DAC" offset="0%"></stop>
            <stop stop-color="#3AC3DF" offset="100%"></stop>
        </linearGradient>
        <linearGradient x1="50.0831579%" y1="94.9829268%" x2="50.0831579%" y2="-11.5268293%" id="linearGradient-23">
            <stop stop-color="#C4007E" offset="0%"></stop>
            <stop stop-color="#471267" offset="100%"></stop>
        </linearGradient>
        <linearGradient x1="-15.8888889%" y1="-131.790741%" x2="95.3486772%" y2="90.8851852%" id="linearGradient-24">
            <stop stop-color="#008DAC" offset="0%"></stop>
            <stop stop-color="#3AC3DF" offset="100%"></stop>
        </linearGradient>
        <linearGradient x1="101.815344%" y1="-3.17454545%" x2="-9.82433862%" y2="219.58%" id="linearGradient-25">
            <stop stop-color="#008DAC" offset="0%"></stop>
            <stop stop-color="#3AC3DF" offset="100%"></stop>
        </linearGradient>
        <linearGradient x1="93.3810526%" y1="75.2128049%" x2="-23.3073684%" y2="7.61890244%" id="linearGradient-26">
            <stop stop-color="#C4007E" offset="0%"></stop>
            <stop stop-color="#471267" offset="100%"></stop>
        </linearGradient>
    </defs>
    <g id="forsida" stroke="none" stroke-width="1" fill="none" fill-rule="evenodd">
        <g id="003-D-Frontpage-Slide2" transform="translate(-70.000000, -17.000000)">
            <g id="Advania-logo" transform="translate(70.000000, 17.000000)">
                <g id="Layer_1">
                    <g id="Group">
                        <path d="M82.1703522,37.3062335 L78.3778744,37.3062335 L73.666008,27.0384628 C73.5510845,26.8102901 73.4361609,26.6962038 73.4361609,26.5821174 C73.3212373,26.4680311 73.3212373,26.3539448 73.2063138,26.3539448 C73.0913902,26.3539448 72.9764666,26.2398584 72.8615431,26.2398584 L72.4018488,26.2398584 L72.4018488,26.2398584 L72.4018488,24.8708223 L78.8375687,24.8708223 L78.8375687,26.2398584 L78.492798,26.2398584 L77.9181801,26.2398584 C77.8032565,26.2398584 77.688333,26.3539448 77.688333,26.3539448 L77.688333,26.8102901 C77.8032565,27.0384628 77.9181801,27.2666355 78.0331037,27.7229809 L81.0211165,34.6822477 L83.8942057,27.8370672 C84.0091293,27.3807218 84.2389764,27.1525491 84.2389764,26.9243765 C84.3539,26.6962038 84.3539,26.5821174 84.3539,26.4680311 C84.3539,26.3539448 84.2389764,26.3539448 84.1240529,26.2398584 L83.549435,26.2398584 L83.4345115,26.2398584 L83.4345115,24.8708223 L87.9165307,24.8708223 L87.9165307,26.2398584 L87.4568364,26.2398584 L87.1120657,26.2398584 C86.9971421,26.2398584 86.9971421,26.2398584 86.8822185,26.3539448 C86.767295,26.3539448 86.767295,26.4680311 86.6523714,26.5821174 C86.5374478,26.6962038 86.5374478,26.8102901 86.4225243,27.0384628 L82.1703522,37.3062335 L82.1703522,37.3062335 Z M103.546136,24.8708223 L108.48785,24.8708223 L108.48785,26.0116857 C108.602773,25.8975994 108.83262,25.7835131 109.062467,25.6694267 C109.292315,25.5553404 109.637085,25.3271677 109.981856,25.2130814 C110.326627,25.098995 110.786321,24.8708223 111.246015,24.756736 C111.70571,24.6426496 112.280327,24.6426496 112.969869,24.6426496 C114.463875,24.6426496 115.613111,24.9849087 116.302652,25.6694267 C116.992194,26.3539448 117.451888,27.3807218 117.451888,28.7497579 L117.451888,35.2526794 L117.451888,35.7090247 C117.451888,35.8231111 117.451888,35.9371974 117.566812,35.9371974 C117.681735,35.9371974 117.681735,36.0512837 117.796659,36.0512837 L118.256353,36.0512837 L118.716047,36.0512837 L118.716047,37.4203198 L112.510175,37.4203198 L112.510175,36.0512837 L112.625098,36.0512837 L113.084792,36.0512837 C113.199716,36.0512837 113.31464,36.0512837 113.31464,35.9371974 C113.31464,35.9371974 113.429563,35.8231111 113.429563,35.7090247 L113.429563,35.2526794 L113.429563,29.6624487 L113.429563,28.2934126 C113.429563,27.9511535 113.31464,27.6088945 113.199716,27.2666355 C113.084792,27.0384628 112.969869,26.8102901 112.740022,26.6962038 C112.510175,26.5821174 112.165404,26.4680311 111.820633,26.4680311 C111.475862,26.4680311 111.131092,26.4680311 110.786321,26.5821174 C110.44155,26.6962038 110.211703,26.8102901 109.981856,26.9243765 C109.752009,27.0384628 109.522162,27.1525491 109.292315,27.3807218 C109.062467,27.4948082 108.947544,27.6088945 108.83262,27.7229809 L108.83262,35.138593 L108.83262,35.5949384 C108.83262,35.7090247 108.83262,35.8231111 108.947544,35.8231111 C109.062467,35.8231111 109.062467,35.9371974 109.177391,35.9371974 L109.637085,35.9371974 L109.752009,35.9371974 L109.752009,37.3062335 L103.546136,37.3062335 L103.546136,35.9371974 L104.00583,35.9371974 L104.465525,35.9371974 C104.580448,35.9371974 104.695372,35.9371974 104.695372,35.8231111 C104.695372,35.8231111 104.810295,35.7090247 104.810295,35.5949384 L104.810295,35.138593 L104.810295,26.9243765 L104.810295,26.4680311 C104.810295,26.3539448 104.810295,26.2398584 104.695372,26.2398584 C104.580448,26.2398584 104.580448,26.1257721 104.465525,26.1257721 L104.00583,26.1257721 L103.546136,26.1257721 L103.546136,24.8708223 L103.546136,24.8708223 Z M125.841309,35.2526794 L125.841309,35.7090247 C125.841309,35.8231111 125.841309,35.9371974 125.956232,35.9371974 C125.956232,35.9371974 126.071156,36.0512837 126.186079,36.0512837 L126.645774,36.0512837 L127.105468,36.0512837 L127.105468,37.4203198 L120.669748,37.4203198 L120.669748,36.0512837 L121.129442,36.0512837 L121.589137,36.0512837 C121.70406,36.0512837 121.818984,36.0512837 121.818984,35.9371974 C121.818984,35.9371974 121.933907,35.8231111 121.933907,35.7090247 L121.933907,35.2526794 L121.933907,27.0384628 L121.933907,26.5821174 C121.933907,26.4680311 121.933907,26.3539448 121.818984,26.3539448 C121.70406,26.3539448 121.70406,26.2398584 121.589137,26.2398584 L121.129442,26.2398584 L120.669748,26.2398584 L120.669748,24.8708223 L125.956232,24.8708223 L125.956232,35.2526794 L125.841309,35.2526794 Z M55.6230076,35.9371974 L55.1633134,35.9371974 C55.0483898,35.9371974 54.9334662,35.9371974 54.9334662,35.8231111 C54.9334662,35.8231111 54.8185426,35.7090247 54.8185426,35.5949384 L54.8185426,35.138593 L54.8185426,28.5215852 C54.8185426,27.7229809 54.7036191,27.1525491 54.3588484,26.6962038 C54.1290012,26.2398584 53.669307,25.7835131 53.2096127,25.5553404 C52.7499184,25.2130814 52.1753005,25.098995 51.4857591,24.9849087 C50.7962177,24.8708223 50.1066763,24.756736 49.3022113,24.756736 C48.6126699,24.756736 47.9231285,24.756736 47.2335871,24.8708223 C46.5440456,24.9849087 45.9694278,25.098995 45.3948099,25.2130814 C44.8201921,25.3271677 44.4754214,25.441254 44.0157271,25.6694267 C43.6709564,25.7835131 43.4411093,25.8975994 43.3261857,25.8975994 L43.3261857,28.9779306 L45.9694278,28.9779306 L45.9694278,27.9511535 L45.9694278,27.3807218 C45.9694278,27.2666355 46.0843514,27.0384628 46.1992749,26.9243765 C46.4291221,26.6962038 46.8888164,26.4680311 47.3485106,26.3539448 C47.8082049,26.2398584 48.2678992,26.2398584 48.6126699,26.2398584 C49.4171349,26.2398584 50.1066763,26.3539448 50.3365234,26.6962038 C50.6812941,27.0384628 50.7962177,27.6088945 50.7962177,28.5215852 L50.7962177,30.0047077 L48.842517,30.0047077 C48.038052,30.0047077 47.2335871,30.0047077 46.4291221,30.118794 C45.6246571,30.2328804 44.9351157,30.461053 44.3604978,30.6892257 C43.78588,31.0314847 43.3261857,31.3737438 42.981415,31.9441755 C42.6366443,32.5146072 42.4067971,33.0850389 42.4067971,33.9977296 C42.4067971,34.6822477 42.5217207,35.2526794 42.8664914,35.7090247 C43.0963386,36.1653701 43.5560328,36.5076291 44.0157271,36.8498881 C44.4754214,37.0780608 45.0500392,37.3062335 45.6246571,37.4203198 C46.1992749,37.5344062 46.7738928,37.6484925 47.4634342,37.6484925 C48.038052,37.6484925 48.6126699,37.5344062 49.0723642,37.4203198 C49.5320585,37.3062335 49.8768292,37.1921472 50.2215999,36.9639745 C50.451447,36.8498881 50.6812941,36.7358018 50.7962177,36.6217154 L50.7962177,37.3062335 L51.255912,37.3062335 L51.255912,37.3062335 L55.9677783,37.3062335 L55.9677783,35.9371974 L55.6230076,35.9371974 L55.6230076,35.9371974 Z M50.5663706,35.138593 C50.451447,35.2526794 50.2215999,35.3667657 50.1066763,35.480852 C49.8768292,35.5949384 49.646982,35.7090247 49.4171349,35.8231111 C49.1872877,35.9371974 48.842517,35.9371974 48.4977463,35.9371974 C47.9231285,35.9371974 47.4634342,35.8231111 47.1186635,35.480852 C46.7738928,35.138593 46.5440456,34.6822477 46.5440456,33.8836433 C46.5440456,33.3132116 46.6589692,32.8568662 46.8888164,32.5146072 C47.1186635,32.1723482 47.4634342,31.9441755 47.8082049,31.8300891 C48.1529756,31.7160028 48.4977463,31.7160028 48.842517,31.7160028 L50.9111413,31.7160028 L50.9111413,34.9104203 C50.7962177,34.9104203 50.6812941,35.0245067 50.5663706,35.138593 L50.5663706,35.138593 Z M101.247665,35.9371974 L100.78797,35.9371974 C100.673047,35.9371974 100.558123,35.9371974 100.558123,35.8231111 C100.558123,35.8231111 100.4432,35.7090247 100.4432,35.5949384 L100.4432,35.138593 L100.4432,28.5215852 C100.4432,27.7229809 100.328276,27.1525491 99.9835055,26.6962038 C99.7536583,26.2398584 99.293964,25.7835131 98.8342698,25.5553404 C98.3745755,25.2130814 97.7999576,25.098995 97.1104162,24.9849087 C96.4208748,24.8708223 95.7313334,24.756736 94.9268684,24.756736 C94.237327,24.756736 93.5477856,24.756736 92.8582441,24.8708223 C92.1687027,24.9849087 91.5940849,25.098995 91.019467,25.2130814 C90.4448492,25.3271677 90.1000785,25.441254 89.6403842,25.6694267 C89.2956135,25.7835131 89.0657664,25.8975994 88.9508428,25.8975994 L88.9508428,28.9779306 L91.3642377,28.9779306 L91.3642377,27.9511535 L91.3642377,27.3807218 C91.3642377,27.2666355 91.4791613,27.0384628 91.5940849,26.9243765 C91.823932,26.6962038 92.2836263,26.4680311 92.7433206,26.3539448 C93.2030149,26.2398584 93.6627091,26.2398584 94.0074798,26.2398584 C94.8119448,26.2398584 95.5014862,26.3539448 95.7313334,26.6962038 C96.0761041,27.0384628 96.1910277,27.6088945 96.1910277,28.5215852 L96.1910277,30.0047077 L94.237327,30.0047077 C93.432862,30.0047077 92.628397,30.0047077 91.823932,30.118794 C91.019467,30.2328804 90.3299256,30.461053 89.7553078,30.6892257 C89.1806899,31.0314847 88.7209956,31.3737438 88.3762249,31.9441755 C88.0314542,32.5146072 87.8016071,33.0850389 87.8016071,33.9977296 C87.8016071,34.6822477 87.9165307,35.2526794 88.2613014,35.7090247 C88.4911485,36.1653701 88.9508428,36.5076291 89.4105371,36.8498881 C89.8702313,37.0780608 90.4448492,37.3062335 91.019467,37.4203198 C91.5940849,37.5344062 92.1687027,37.6484925 92.8582441,37.6484925 C93.432862,37.6484925 94.0074798,37.5344062 94.4671741,37.4203198 C94.9268684,37.3062335 95.2716391,37.1921472 95.6164098,36.9639745 C95.846257,36.8498881 96.0761041,36.7358018 96.1910277,36.6217154 L96.1910277,37.3062335 L96.6507219,37.3062335 L96.6507219,37.3062335 L101.362588,37.3062335 L101.362588,35.9371974 L101.247665,35.9371974 L101.247665,35.9371974 Z M96.3059512,35.138593 C96.1910277,35.2526794 95.9611805,35.3667657 95.846257,35.480852 C95.6164098,35.5949384 95.3865627,35.7090247 95.1567155,35.8231111 C94.9268684,35.9371974 94.5820977,35.9371974 94.237327,35.9371974 C93.6627091,35.9371974 93.2030149,35.8231111 92.8582441,35.480852 C92.5134734,35.138593 92.2836263,34.6822477 92.2836263,33.8836433 C92.2836263,33.3132116 92.3985499,32.8568662 92.628397,32.5146072 C92.8582441,32.1723482 93.2030149,31.9441755 93.5477856,31.8300891 C93.8925563,31.7160028 94.237327,31.7160028 94.5820977,31.7160028 L96.5357984,31.7160028 L96.5357984,34.9104203 C96.5357984,34.9104203 96.4208748,35.0245067 96.3059512,35.138593 L96.3059512,35.138593 Z M141.700761,35.9371974 L141.241067,35.9371974 C141.126143,35.9371974 141.01122,35.9371974 141.01122,35.8231111 C141.01122,35.8231111 140.896296,35.7090247 140.896296,35.5949384 L140.896296,35.138593 L140.896296,28.5215852 C140.896296,27.7229809 140.781373,27.1525491 140.436602,26.6962038 C140.206755,26.2398584 139.747061,25.7835131 139.287366,25.5553404 C138.827672,25.3271677 138.253054,25.098995 137.563513,24.9849087 C136.873971,24.8708223 136.18443,24.756736 135.379965,24.756736 C134.690423,24.756736 134.000882,24.756736 133.311341,24.8708223 C132.621799,24.9849087 132.047181,25.098995 131.472563,25.2130814 C130.897946,25.3271677 130.553175,25.441254 130.093481,25.6694267 C129.74871,25.7835131 129.518863,25.8975994 129.403939,25.8975994 L129.403939,28.9779306 L131.817334,28.9779306 L131.817334,27.9511535 L131.817334,27.3807218 C131.817334,27.2666355 131.932258,27.0384628 132.047181,26.9243765 C132.277028,26.6962038 132.736723,26.4680311 133.196417,26.3539448 C133.656111,26.2398584 134.115806,26.2398584 134.460576,26.2398584 C135.265041,26.2398584 135.954583,26.3539448 136.18443,26.6962038 C136.529201,27.0384628 136.644124,27.6088945 136.644124,28.5215852 L136.644124,30.0047077 L134.690423,30.0047077 C133.885958,30.0047077 133.081493,30.118794 132.277028,30.118794 C131.472563,30.2328804 130.783022,30.461053 130.208404,30.6892257 C129.633786,31.0314847 129.174092,31.3737438 128.829321,31.9441755 C128.484551,32.5146072 128.254704,33.0850389 128.254704,33.9977296 C128.254704,34.6822477 128.369627,35.2526794 128.714398,35.7090247 C128.944245,36.1653701 129.403939,36.5076291 129.863634,36.8498881 C130.323328,37.0780608 130.897946,37.3062335 131.472563,37.4203198 C132.047181,37.5344062 132.621799,37.6484925 133.311341,37.6484925 C133.885958,37.6484925 134.460576,37.5344062 134.920271,37.4203198 C135.379965,37.3062335 135.724736,37.1921472 136.069506,36.9639745 C136.299353,36.8498881 136.529201,36.7358018 136.644124,36.6217154 L136.644124,37.1921472 L137.103818,37.1921472 L137.103818,37.1921472 L141.815685,37.1921472 L141.815685,35.8231111 L141.700761,35.8231111 L141.700761,35.9371974 Z M136.644124,35.138593 C136.529201,35.2526794 136.299353,35.3667657 136.18443,35.480852 C135.954583,35.5949384 135.724736,35.7090247 135.494888,35.8231111 C135.265041,35.9371974 134.920271,35.9371974 134.5755,35.9371974 C134.000882,35.9371974 133.541188,35.8231111 133.196417,35.480852 C132.851646,35.138593 132.621799,34.6822477 132.621799,33.8836433 C132.621799,33.3132116 132.736723,32.8568662 132.96657,32.5146072 C133.196417,32.1723482 133.541188,31.9441755 133.885958,31.8300891 C134.230729,31.7160028 134.5755,31.7160028 134.920271,31.7160028 L136.988895,31.7160028 L136.988895,34.9104203 C136.988895,34.9104203 136.873971,35.0245067 136.644124,35.138593 L136.644124,35.138593 Z M71.7123074,35.9371974 L71.2526131,35.9371974 C71.1376895,35.9371974 71.0227659,35.9371974 71.0227659,35.8231111 C71.0227659,35.8231111 70.9078424,35.7090247 70.9078424,35.5949384 L70.9078424,35.138593 L70.9078424,18.7101599 L65.6213582,18.7101599 L65.6213582,20.079196 L66.0810525,20.079196 L66.5407467,20.079196 C66.6556703,20.079196 66.7705939,20.079196 66.7705939,20.1932824 C66.8855174,20.1932824 66.8855174,20.3073687 66.8855174,20.421455 L66.8855174,20.8778004 L66.8855174,25.8975994 C66.6556703,25.5553404 66.195976,25.3271677 65.6213582,25.098995 C65.0467403,24.8708223 64.2422753,24.756736 63.3228868,24.756736 C62.5184218,24.756736 61.7139568,24.8708223 60.9094918,25.098995 C60.1050268,25.3271677 59.4154854,25.7835131 58.8408676,26.2398584 C58.2662497,26.8102901 57.8065555,27.4948082 57.3468612,28.2934126 C57.0020905,29.0920169 56.7722433,30.118794 56.7722433,31.2596574 C56.7722433,32.5146072 57.0020905,33.5413842 57.3468612,34.3399886 C57.6916319,35.138593 58.2662497,35.8231111 58.8408676,36.2794564 C59.4154854,36.7358018 60.1050268,37.0780608 60.9094918,37.3062335 C61.7139568,37.5344062 62.4034982,37.6484925 63.0930397,37.6484925 C63.7825811,37.6484925 64.3571989,37.5344062 64.8168932,37.4203198 C65.2765875,37.3062335 65.7362817,37.0780608 66.0810525,36.8498881 C66.4258232,36.7358018 66.6556703,36.5076291 66.7705939,36.3935428 L66.7705939,37.3062335 L67.2302882,37.3062335 L67.2302882,37.3062335 L71.9421545,37.3062335 L71.9421545,35.9371974 L71.7123074,35.9371974 L71.7123074,35.9371974 Z M64.0124282,26.9243765 C65.7362817,26.9243765 66.6556703,27.9511535 66.8855174,28.4074989 L66.8855174,33.6554706 C66.5407467,34.2259023 65.7362817,35.3667657 64.1273518,35.3667657 C62.4034982,35.3667657 61.4841097,34.3399886 61.2542625,33.8836433 C60.9094918,33.1991252 60.9094918,32.0582618 60.9094918,31.1455711 C60.9094918,30.118794 61.0244154,29.0920169 61.3691861,28.5215852 C62.0587275,27.4948082 62.9781161,26.9243765 64.0124282,26.9243765 L64.0124282,26.9243765 Z M123.887608,18.5960736 C122.738372,18.5960736 121.70406,19.5087643 121.70406,20.7637141 C121.70406,21.9045775 122.623449,22.9313545 123.887608,22.9313545 C125.036844,22.9313545 126.071156,22.0186638 126.071156,20.7637141 C126.071156,19.5087643 125.151767,18.5960736 123.887608,18.5960736 L123.887608,18.5960736 Z" id="Shape" fill="#30302F"></path>
                        <g transform="translate(96.535798, 43.352810)" id="Shape" fill="#30302F">
                            <path d="M4.36709564,5.13388534 L3.56263065,2.28172682 L3.56263065,2.28172682 L2.75816567,5.13388534 L1.72385354,5.13388534 L0.689541417,0.912690728 C0.689541417,0.798604387 0.574617847,0.798604387 0.574617847,0.798604387 L0.229847139,0.684518046 L0.344770708,0.228172682 L2.18354782,0.228172682 L2.18354782,0.684518046 L1.60892997,0.798604387 L2.41339496,4.4493673 L2.41339496,4.4493673 L3.21785995,1.25494975 L4.02232493,1.25494975 L4.94171349,4.4493673 L4.94171349,4.4493673 L5.74617847,0.798604387 L5.17156063,0.684518046 L5.2864842,0.228172682 L6.89541417,0.228172682 L6.89541417,0.684518046 L6.55064346,0.798604387 C6.43571989,0.798604387 6.43571989,0.798604387 6.43571989,0.912690728 L5.40140777,5.13388534 L4.36709564,5.13388534 L4.36709564,5.13388534 Z"></path>
                            <path d="M9.76850341,4.90571266 C9.4237327,5.13388534 8.96403842,5.24797168 8.50434414,5.24797168 C7.24018488,5.24797168 6.7804906,4.4493673 6.7804906,3.42259023 C6.7804906,2.16764048 7.47003202,1.59720877 8.38942057,1.59720877 C9.19388556,1.59720877 9.88342698,2.05355414 9.88342698,3.19441755 L9.88342698,3.53667657 L7.69987916,3.53667657 C7.69987916,4.22119462 7.92972629,4.56345364 8.61926771,4.56345364 C8.96403842,4.56345364 9.19388556,4.4493673 9.65357984,4.33528096 L9.76850341,4.90571266 L9.76850341,4.90571266 Z M9.07896199,3.08033121 C9.07896199,2.39581316 8.73419128,2.16764048 8.38942057,2.16764048 C8.04464986,2.16764048 7.69987916,2.39581316 7.58495559,3.08033121 L9.07896199,3.08033121 L9.07896199,3.08033121 Z"></path>
                            <path d="M10.2281977,5.13388534 L10.2281977,4.67753998 L10.5729684,4.67753998 C10.687892,4.67753998 10.687892,4.67753998 10.687892,4.56345364 L10.687892,0.798604387 C10.687892,0.684518046 10.687892,0.684518046 10.5729684,0.684518046 L10.2281977,0.570431705 L10.3431213,0 L11.4923569,0 L11.4923569,4.56345364 C11.4923569,4.67753998 11.4923569,4.67753998 11.6072805,4.67753998 L11.9520512,4.67753998 L11.9520512,5.13388534 L10.2281977,5.13388534 L10.2281977,5.13388534 Z"></path>
                            <path d="M15.2848347,4.90571266 C15.0549876,5.13388534 14.4803698,5.24797168 14.0206755,5.24797168 C12.8714398,5.24797168 12.2968219,4.4493673 12.2968219,3.42259023 C12.2968219,2.16764048 13.1012869,1.59720877 14.135599,1.59720877 C14.5952933,1.59720877 15.0549876,1.71129511 15.2848347,1.82538146 L15.2848347,2.73807218 L14.7102169,2.73807218 L14.7102169,2.28172682 C14.7102169,2.28172682 14.7102169,2.16764048 14.5952933,2.16764048 C14.4803698,2.16764048 14.3654462,2.05355414 14.135599,2.05355414 C13.5609812,2.05355414 13.2162105,2.39581316 13.2162105,3.30850389 C13.2162105,4.22119462 13.6759048,4.56345364 14.2505226,4.56345364 C14.5952933,4.56345364 14.940064,4.4493673 15.1699112,4.33528096 L15.2848347,4.90571266 L15.2848347,4.90571266 Z"></path>
                            <path d="M15.744529,3.42259023 C15.744529,2.28172682 16.3191469,1.59720877 17.4683826,1.59720877 C18.6176183,1.59720877 19.0773125,2.28172682 19.0773125,3.30850389 C19.0773125,4.4493673 18.5026947,5.13388534 17.353459,5.13388534 C16.2042233,5.24797168 15.744529,4.4493673 15.744529,3.42259023 L15.744529,3.42259023 Z M18.2728475,3.42259023 C18.2728475,2.5098995 17.9280768,2.16764048 17.353459,2.16764048 C16.7788411,2.16764048 16.4340704,2.5098995 16.4340704,3.42259023 C16.4340704,4.33528096 16.7788411,4.67753998 17.353459,4.67753998 C18.0430004,4.67753998 18.2728475,4.22119462 18.2728475,3.42259023 L18.2728475,3.42259023 Z"></path>
                            <path d="M23.6742553,5.13388534 L23.6742553,4.67753998 L24.019026,4.67753998 C24.1339496,4.67753998 24.1339496,4.67753998 24.1339496,4.56345364 L24.1339496,2.96624487 C24.1339496,2.62398584 24.1339496,2.28172682 23.6742553,2.28172682 C23.3294846,2.28172682 23.0996375,2.39581316 22.8697903,2.5098995 L22.8697903,2.85215852 L22.8697903,4.56345364 C22.8697903,4.67753998 22.8697903,4.67753998 22.9847139,4.67753998 L23.3294846,4.67753998 L23.3294846,5.13388534 L21.6056311,5.13388534 L21.6056311,4.67753998 L21.9504018,4.67753998 C22.0653253,4.67753998 22.0653253,4.67753998 22.0653253,4.56345364 L22.0653253,2.96624487 C22.0653253,2.62398584 22.0653253,2.16764048 21.6056311,2.16764048 C21.2608604,2.16764048 21.0310132,2.28172682 20.8011661,2.5098995 L20.8011661,4.56345364 C20.8011661,4.67753998 20.8011661,4.67753998 20.9160896,4.67753998 L21.2608604,4.67753998 L21.2608604,5.13388534 L19.6519304,5.13388534 L19.6519304,4.67753998 L19.9967011,4.67753998 C20.1116247,4.67753998 20.1116247,4.67753998 20.1116247,4.56345364 L20.1116247,2.39581316 C20.1116247,2.28172682 20.1116247,2.28172682 19.9967011,2.28172682 L19.6519304,2.16764048 L19.766854,1.71129511 L20.8011661,1.71129511 L20.8011661,2.05355414 L20.8011661,2.05355414 C21.1459368,1.82538146 21.4907075,1.59720877 21.9504018,1.59720877 C22.2951725,1.59720877 22.6399432,1.71129511 22.7548668,2.05355414 C23.0996375,1.82538146 23.4444082,1.59720877 23.9041025,1.59720877 C24.7085674,1.59720877 24.9384146,2.05355414 24.9384146,2.73807218 L24.9384146,4.56345364 C24.9384146,4.67753998 24.9384146,4.67753998 25.0533381,4.67753998 L25.3981089,4.67753998 L25.3981089,5.13388534 L23.6742553,5.13388534 L23.6742553,5.13388534 Z"></path>
                            <path d="M28.7308924,4.90571266 C28.3861217,5.13388534 27.9264274,5.24797168 27.4667331,5.24797168 C26.2025738,5.24797168 25.7428796,4.4493673 25.7428796,3.42259023 C25.7428796,2.16764048 26.432421,1.59720877 27.3518095,1.59720877 C28.1562745,1.59720877 28.8458159,2.05355414 28.8458159,3.19441755 L28.8458159,3.53667657 L26.6622681,3.53667657 C26.6622681,4.22119462 26.8921153,4.56345364 27.5816567,4.56345364 C27.9264274,4.56345364 28.1562745,4.4493673 28.6159688,4.33528096 L28.7308924,4.90571266 L28.7308924,4.90571266 Z M28.041351,3.08033121 C28.041351,2.39581316 27.6965802,2.16764048 27.3518095,2.16764048 C27.0070388,2.16764048 26.6622681,2.39581316 26.5473446,3.08033121 L28.041351,3.08033121 L28.041351,3.08033121 Z"></path>
                            <path d="M33.2129116,5.019799 C32.9830644,5.13388534 32.5233702,5.24797168 32.1785995,5.24797168 C31.489058,5.24797168 31.1442873,4.90571266 31.1442873,4.22119462 L31.1442873,2.28172682 L31.1442873,2.16764048 L30.6845931,2.16764048 L30.6845931,1.71129511 C31.2592109,1.59720877 31.3741345,1.25494975 31.489058,0.684518046 L31.9487523,0.684518046 L31.9487523,1.59720877 L31.9487523,1.71129511 L32.9830644,1.71129511 L32.9830644,2.28172682 L31.9487523,2.28172682 L31.9487523,4.10710827 C31.9487523,4.56345364 32.0636759,4.67753998 32.4084466,4.67753998 C32.6382937,4.67753998 32.8681409,4.67753998 32.9830644,4.56345364 L33.2129116,5.019799 L33.2129116,5.019799 Z"></path>
                            <path d="M33.3278352,3.42259023 C33.3278352,2.28172682 33.902453,1.59720877 35.0516887,1.59720877 C36.2009244,1.59720877 36.6606187,2.28172682 36.6606187,3.30850389 C36.6606187,4.4493673 36.0860008,5.13388534 34.9367651,5.13388534 C33.7875294,5.24797168 33.3278352,4.4493673 33.3278352,3.42259023 L33.3278352,3.42259023 Z M35.9710773,3.42259023 C35.9710773,2.5098995 35.6263065,2.16764048 35.0516887,2.16764048 C34.4770708,2.16764048 34.1323001,2.5098995 34.1323001,3.42259023 C34.1323001,4.33528096 34.4770708,4.67753998 35.0516887,4.67753998 C35.6263065,4.67753998 35.9710773,4.22119462 35.9710773,3.42259023 L35.9710773,3.42259023 Z"></path>
                            <path d="M38.8441665,5.13388534 L38.8441665,4.67753998 L39.3038608,4.67753998 C39.4187843,4.67753998 39.4187843,4.67753998 39.4187843,4.56345364 L39.4187843,0.912690728 C39.4187843,0.798604387 39.4187843,0.798604387 39.3038608,0.798604387 L38.8441665,0.798604387 L38.8441665,0.342259023 L40.9127907,0.342259023 L40.9127907,0.798604387 L40.3381729,0.798604387 C40.2232493,0.798604387 40.2232493,0.798604387 40.2232493,0.912690728 L40.2232493,4.56345364 C40.2232493,4.67753998 40.2232493,4.67753998 40.3381729,4.67753998 L40.9127907,4.67753998 L40.9127907,5.13388534 L38.8441665,5.13388534 L38.8441665,5.13388534 Z"></path>
                            <path d="M42.2918736,5.13388534 L42.2918736,4.67753998 L42.981415,4.67753998 C43.0963386,4.67753998 43.0963386,4.67753998 43.0963386,4.56345364 L43.0963386,0.912690728 L42.17695,0.912690728 C42.0620264,0.912690728 42.0620264,0.912690728 42.0620264,1.02677707 L41.9471029,1.59720877 L41.372485,1.59720877 L41.372485,0.342259023 L45.6246571,0.342259023 L45.6246571,1.59720877 L45.0500392,1.59720877 L44.9351157,1.02677707 C44.9351157,0.912690728 44.9351157,0.912690728 44.8201921,0.912690728 L43.9008035,0.912690728 L43.9008035,4.56345364 C43.9008035,4.67753998 43.9008035,4.67753998 44.0157271,4.67753998 L44.7052685,4.67753998 L44.7052685,5.13388534 L42.2918736,5.13388534 L42.2918736,5.13388534 Z"></path>
                        </g>
                        <polygon id="Shape" fill="url(#linearGradient-1)" points="32.5233702 24.8708223 32.5233702 12.4354112 21.7205546 6.27474875"></polygon>
                        <polygon id="Shape" fill="url(#linearGradient-2)" points="21.7205546 6.27474875 32.5233702 0 43.4411093 6.27474875"></polygon>
                        <polygon id="Shape" fill="url(#linearGradient-3)" points="43.4411093 6.27474875 43.4411093 18.5960736 32.5233702 24.8708223"></polygon>
                        <polygon id="Shape" fill="url(#linearGradient-4)" points="21.7205546 6.27474875 21.7205546 18.5960736 32.5233702 24.8708223"></polygon>
                        <polygon id="Shape" fill="url(#linearGradient-5)" points="32.5233702 24.8708223 32.5233702 12.4354112 43.4411093 6.27474875"></polygon>
                        <polygon id="Shape" fill="url(#linearGradient-6)" points="43.4411093 6.27474875 32.5233702 12.4354112 21.7205546 6.27474875"></polygon>
                        <g transform="translate(21.669037, 36.507629)" id="Shape">
                            <polygon fill="url(#linearGradient-7)" points="21.7720721 6.9592668 10.854333 13.2340156 0.0515174622 6.9592668"></polygon>
                            <polygon fill="url(#linearGradient-8)" points="21.7720721 6.9592668 21.7720721 19.394678 10.854333 25.6694267"></polygon>
                            <polygon fill="url(#linearGradient-9)" points="10.854333 25.6694267 10.854333 13.2340156 21.7720721 6.9592668"></polygon>
                            <polygon fill="url(#linearGradient-10)" points="0.0515174622 6.9592668 0.0515174622 19.394678 10.854333 25.6694267"></polygon>
                            <polygon fill="url(#linearGradient-11)" points="10.854333 25.6694267 10.854333 13.2340156 0.0515174622 6.9592668"></polygon>
                            <polygon fill="url(#linearGradient-12)" points="0.0515174622 6.9592668 10.854333 0.798604387 21.7720721 6.9592668"></polygon>
                        </g>
                        <polygon id="Shape" fill="url(#linearGradient-13)" points="10.8028155 24.8708223 21.7205546 18.5960736 32.5233702 24.8708223"></polygon>
                        <polygon id="Shape" fill="url(#linearGradient-14)" points="32.5233702 24.8708223 32.5233702 37.3062335 21.7205546 43.4668959"></polygon>
                        <polygon id="Shape" fill="url(#linearGradient-15)" points="21.7205546 43.4668959 21.7205546 31.0314847 10.8028155 24.8708223"></polygon>
                        <polygon id="Shape" fill="url(#linearGradient-16)" points="10.8028155 24.8708223 10.8028155 37.3062335 21.7205546 43.4668959"></polygon>
                        <polygon id="Shape" fill="url(#linearGradient-17)" points="21.7205546 43.4668959 21.7205546 31.0314847 32.5233702 24.8708223"></polygon>
                        <polygon id="Shape" fill="url(#linearGradient-18)" points="32.5233702 24.8708223 21.7205546 31.0314847 10.8028155 24.8708223"></polygon>
                        <polygon id="Shape" fill="url(#linearGradient-19)" points="21.7205546 43.4668959 10.8028155 49.7416447 0 43.4668959"></polygon>
                        <polygon id="Shape" fill="url(#linearGradient-20)" points="0 43.4668959 0 31.0314847 10.8028155 24.8708223"></polygon>
                        <polygon id="Shape" fill="url(#linearGradient-21)" points="0 43.4668959 10.8028155 37.3062335 21.7205546 43.4668959"></polygon>
                        <polygon id="Shape" fill="url(#linearGradient-22)" points="10.8028155 24.8708223 10.8028155 37.3062335 0 43.4668959"></polygon>
                        <polygon id="Shape" fill="url(#linearGradient-23)" points="21.7205546 43.4668959 21.7205546 55.9023071 10.8028155 62.1770558"></polygon>
                        <g transform="translate(10.343121, 55.902307)" id="Shape">
                            <polygon fill="url(#linearGradient-24)" points="22.1802489 6.27474875 11.3774334 12.4354112 0.459694278 6.27474875"></polygon>
                            <polygon fill="url(#linearGradient-25)" points="0.459694278 6.27474875 11.3774334 0 22.1802489 6.27474875"></polygon>
                        </g>
                        <polygon id="Shape" fill="url(#linearGradient-26)" points="10.8028155 62.1770558 10.8028155 49.7416447 21.7205546 43.4668959"></polygon>
                    </g>
                </g>
            </g>
        </g>
    </g>
</svg>